solid CATIA STL
  facet normal  0.000000e+000 -1.000000e+000  -0.000000e+000
    outer loop
      vertex -7.586574e+002  1.215000e+003  5.155585e+001
      vertex -7.809358e+002  1.215000e+003  5.601000e+001
      vertex -7.964634e+002  1.215000e+003  5.208770e+001
    endloop
  endfacet
  facet normal  0.000000e+000 -1.000000e+000  -0.000000e+000
    outer loop
      vertex -7.341220e+002  1.215000e+003  5.096262e+001
      vertex -7.341220e+002  1.215000e+003  6.555900e+001
      vertex -7.464115e+002  1.215000e+003  6.336822e+001
    endloop
  endfacet
  facet normal  0.000000e+000 -1.000000e+000  -0.000000e+000
    outer loop
      vertex -7.341220e+002  1.215000e+003  5.096262e+001
      vertex -7.464115e+002  1.215000e+003  6.336822e+001
      vertex -7.653209e+002  1.215000e+003  5.956930e+001
    endloop
  endfacet
  facet normal  0.000000e+000 -1.000000e+000  -0.000000e+000
    outer loop
      vertex -7.341220e+002  1.215000e+003  5.096262e+001
      vertex -7.653209e+002  1.215000e+003  5.956930e+001
      vertex -7.809358e+002  1.215000e+003  5.601000e+001
    endloop
  endfacet
  facet normal  0.000000e+000 -1.000000e+000  0.000000e+000
    outer loop
      vertex -7.341220e+002  1.215000e+003  5.096262e+001
      vertex -7.809358e+002  1.215000e+003  5.601000e+001
      vertex -7.586574e+002  1.215000e+003  5.155585e+001
    endloop
  endfacet
  facet normal -9.999999e-001  0.000000e+000  0.000000e+000
    outer loop
      vertex -7.341220e+002  9.775001e+002  4.800011e+001
      vertex -7.341220e+002  9.774999e+002  6.294741e+001
      vertex -7.341220e+002  1.215000e+003  5.096262e+001
    endloop
  endfacet
  facet normal -1.000000e+000  0.000000e+000  0.000000e+000
    outer loop
      vertex -7.341220e+002  1.215000e+003  5.096262e+001
      vertex -7.341220e+002  9.774999e+002  6.294741e+001
      vertex -7.341220e+002  1.215000e+003  6.555900e+001
    endloop
  endfacet
  facet normal -3.020007e-005  9.999999e-001  1.225007e-005
    outer loop
      vertex -7.341220e+002  9.775001e+002  4.800011e+001
      vertex -7.361220e+002  9.775000e+002  4.805195e+001
      vertex -7.341220e+002  9.774999e+002  6.294741e+001
    endloop
  endfacet
  facet normal  6.103516e-005  1.000000e+000  0.000000e+000
    outer loop
      vertex -7.341220e+002  9.774999e+002  6.294741e+001
      vertex -7.361220e+002  9.775000e+002  4.805195e+001
      vertex -7.361220e+002  9.775000e+002  6.258574e+001
    endloop
  endfacet
  facet normal -1.000000e+000  0.000000e+000  0.000000e+000
    outer loop
      vertex -7.361220e+002  9.625000e+002  4.786456e+001
      vertex -7.361220e+002  9.625000e+002  6.241998e+001
      vertex -7.361220e+002  9.775000e+002  4.805195e+001
    endloop
  endfacet
  facet normal -1.000000e+000  0.000000e+000  0.000000e+000
    outer loop
      vertex -7.361220e+002  9.775000e+002  4.805195e+001
      vertex -7.361220e+002  9.625000e+002  6.241998e+001
      vertex -7.361220e+002  9.775000e+002  6.258574e+001
    endloop
  endfacet
  facet normal  0.000000e+000 -1.000000e+000  0.000000e+000
    outer loop
      vertex -7.361220e+002  9.625000e+002  4.786456e+001
      vertex -7.341220e+002  9.625000e+002  4.781305e+001
      vertex -7.361220e+002  9.625000e+002  6.241998e+001
    endloop
  endfacet
  facet normal  0.000000e+000 -9.999999e-001  0.000000e+000
    outer loop
      vertex -7.361220e+002  9.625000e+002  6.241998e+001
      vertex -7.341220e+002  9.625000e+002  4.781305e+001
      vertex -7.341220e+002  9.625000e+002  6.278279e+001
    endloop
  endfacet
  facet normal  0.000000e+000  1.000000e+000  0.000000e+000
    outer loop
      vertex -7.970817e+002  7.250000e+002  4.581778e+001
      vertex -7.797531e+002  7.250000e+002  5.027241e+001
      vertex -7.470904e+002  7.250000e+002  4.513028e+001
    endloop
  endfacet
  facet normal -4.360083e-005  1.000000e+000 -2.769518e-004
    outer loop
      vertex -7.341220e+002  7.250005e+002  4.485171e+001
      vertex -7.470904e+002  7.250000e+002  4.513028e+001
      vertex -7.797531e+002  7.250000e+002  5.027241e+001
    endloop
  endfacet
  facet normal -7.106572e-006  1.000000e+000  3.025449e-005
    outer loop
      vertex -7.341220e+002  7.250005e+002  4.485171e+001
      vertex -7.797531e+002  7.250000e+002  5.027241e+001
      vertex -7.623347e+002  7.250000e+002  5.436387e+001
    endloop
  endfacet
  facet normal -6.738607e-006  1.000000e+000  3.134586e-005
    outer loop
      vertex -7.341220e+002  7.250005e+002  4.485171e+001
      vertex -7.623347e+002  7.250000e+002  5.436387e+001
      vertex -7.484037e+002  7.250000e+002  5.735869e+001
    endloop
  endfacet
  facet normal -6.292666e-006  1.000000e+000  3.185508e-005
    outer loop
      vertex -7.341220e+002  7.250005e+002  4.485171e+001
      vertex -7.484037e+002  7.250000e+002  5.735869e+001
      vertex -7.341220e+002  7.250000e+002  6.017991e+001
    endloop
  endfacet
  facet normal -1.000000e+000  0.000000e+000  0.000000e+000
    outer loop
      vertex -7.341220e+002  7.250005e+002  4.485171e+001
      vertex -7.341220e+002  7.250000e+002  6.017991e+001
      vertex -7.341220e+002  9.625000e+002  4.781305e+001
    endloop
  endfacet
  facet normal -1.000000e+000  0.000000e+000  0.000000e+000
    outer loop
      vertex -7.341220e+002  9.625000e+002  4.781305e+001
      vertex -7.341220e+002  7.250000e+002  6.017991e+001
      vertex -7.341220e+002  9.625000e+002  6.278279e+001
    endloop
  endfacet
  facet normal  2.590862e-002 -1.246855e-002  9.995865e-001
    outer loop
      vertex -7.361220e+002  9.775000e+002  4.805195e+001
      vertex -7.341220e+002  9.775001e+002  4.800011e+001
      vertex -7.341220e+002  1.215000e+003  5.096262e+001
    endloop
  endfacet
  facet normal  2.416995e-002 -1.245445e-002  9.996302e-001
    outer loop
      vertex -7.361220e+002  9.775000e+002  4.805195e+001
      vertex -7.341220e+002  1.215000e+003  5.096262e+001
      vertex -7.586574e+002  1.215000e+003  5.155585e+001
    endloop
  endfacet
  facet normal  2.299822e-002 -1.256602e-002  9.996566e-001
    outer loop
      vertex -7.361220e+002  9.775000e+002  4.805195e+001
      vertex -7.586574e+002  1.215000e+003  5.155585e+001
      vertex -7.470904e+002  7.250000e+002  4.513028e+001
    endloop
  endfacet
  facet normal  2.121666e-002 -1.248909e-002  9.996969e-001
    outer loop
      vertex -7.361220e+002  9.775000e+002  4.805195e+001
      vertex -7.470904e+002  7.250000e+002  4.513028e+001
      vertex -7.361220e+002  9.625000e+002  4.786456e+001
    endloop
  endfacet
  facet normal  2.147471e-002 -1.246499e-002  9.996917e-001
    outer loop
      vertex -7.341220e+002  7.250005e+002  4.485171e+001
      vertex -7.341220e+002  9.625000e+002  4.781305e+001
      vertex -7.470904e+002  7.250000e+002  4.513028e+001
    endloop
  endfacet
  facet normal  2.574241e-002 -1.269685e-002  9.995880e-001
    outer loop
      vertex -7.470904e+002  7.250000e+002  4.513028e+001
      vertex -7.341220e+002  9.625000e+002  4.781305e+001
      vertex -7.361220e+002  9.625000e+002  4.786456e+001
    endloop
  endfacet
  facet normal  1.375005e-002 -1.278652e-002  9.998237e-001
    outer loop
      vertex -7.470904e+002  7.250000e+002  4.513028e+001
      vertex -7.586574e+002  1.215000e+003  5.155585e+001
      vertex -7.970817e+002  7.250000e+002  4.581778e+001
    endloop
  endfacet
  facet normal  1.406531e-002 -1.281119e-002  9.998190e-001
    outer loop
      vertex -7.970817e+002  7.250000e+002  4.581778e+001
      vertex -7.586574e+002  1.215000e+003  5.155585e+001
      vertex -7.964634e+002  1.215000e+003  5.208770e+001
    endloop
  endfacet
  facet normal  1.754873e-001  1.082487e-002 -9.844222e-001
    outer loop
      vertex -7.341220e+002  9.774999e+002  6.294741e+001
      vertex -7.464115e+002  1.215000e+003  6.336822e+001
      vertex -7.341220e+002  1.215000e+003  6.555900e+001
    endloop
  endfacet
  facet normal  1.945997e-001  1.083875e-002 -9.808229e-001
    outer loop
      vertex -7.361220e+002  9.775000e+002  6.258574e+001
      vertex -7.361220e+002  9.625000e+002  6.241998e+001
      vertex -7.484037e+002  7.250000e+002  5.735869e+001
    endloop
  endfacet
  facet normal  1.859601e-001  1.129355e-002 -9.824923e-001
    outer loop
      vertex -7.361220e+002  9.775000e+002  6.258574e+001
      vertex -7.484037e+002  7.250000e+002  5.735869e+001
      vertex -7.464115e+002  1.215000e+003  6.336822e+001
    endloop
  endfacet
  facet normal  1.779377e-001  1.095089e-002 -9.839808e-001
    outer loop
      vertex -7.361220e+002  9.775000e+002  6.258574e+001
      vertex -7.464115e+002  1.215000e+003  6.336822e+001
      vertex -7.341220e+002  9.774999e+002  6.294741e+001
    endloop
  endfacet
  facet normal  2.101612e-001  1.113519e-002 -9.776033e-001
    outer loop
      vertex -7.623347e+002  7.250000e+002  5.436387e+001
      vertex -7.464115e+002  1.215000e+003  6.336822e+001
      vertex -7.484037e+002  7.250000e+002  5.735869e+001
    endloop
  endfacet
  facet normal  1.969527e-001  1.161479e-002 -9.803443e-001
    outer loop
      vertex -7.464115e+002  1.215000e+003  6.336822e+001
      vertex -7.623347e+002  7.250000e+002  5.436387e+001
      vertex -7.653209e+002  1.215000e+003  5.956930e+001
    endloop
  endfacet
  facet normal  2.286537e-001  1.173460e-002 -9.734371e-001
    outer loop
      vertex -7.653209e+002  1.215000e+003  5.956930e+001
      vertex -7.623347e+002  7.250000e+002  5.436387e+001
      vertex -7.797531e+002  7.250000e+002  5.027241e+001
    endloop
  endfacet
  facet normal  2.222260e-001  1.195209e-002 -9.749219e-001
    outer loop
      vertex -7.653209e+002  1.215000e+003  5.956930e+001
      vertex -7.797531e+002  7.250000e+002  5.027241e+001
      vertex -7.809358e+002  1.215000e+003  5.601000e+001
    endloop
  endfacet
  facet normal  2.489557e-001  1.194072e-002 -9.684412e-001
    outer loop
      vertex -7.809358e+002  1.215000e+003  5.601000e+001
      vertex -7.797531e+002  7.250000e+002  5.027241e+001
      vertex -7.970817e+002  7.250000e+002  4.581778e+001
    endloop
  endfacet
  facet normal  2.448910e-001  1.209616e-002 -9.694752e-001
    outer loop
      vertex -7.809358e+002  1.215000e+003  5.601000e+001
      vertex -7.970817e+002  7.250000e+002  4.581778e+001
      vertex -7.964634e+002  1.215000e+003  5.208770e+001
    endloop
  endfacet
  facet normal  1.937839e-001  1.088437e-002 -9.809838e-001
    outer loop
      vertex -7.484037e+002  7.250000e+002  5.735869e+001
      vertex -7.361220e+002  9.625000e+002  6.241998e+001
      vertex -7.341220e+002  7.250000e+002  6.017991e+001
    endloop
  endfacet
  facet normal  1.784843e-001  1.078288e-002 -9.838837e-001
    outer loop
      vertex -7.341220e+002  7.250000e+002  6.017991e+001
      vertex -7.361220e+002  9.625000e+002  6.241998e+001
      vertex -7.341220e+002  9.625000e+002  6.278279e+001
    endloop
  endfacet
  facet normal  0.000000e+000 -1.000000e+000  0.000000e+000
    outer loop
      vertex -7.301220e+002  7.210000e+002  6.088378e+001
      vertex -7.248580e+002  7.210000e+002  6.184016e+001
      vertex -7.401309e+002  7.210000e+002  6.050674e+001
    endloop
  endfacet
  facet normal  -0.000000e+000 -1.000000e+000  -0.000000e+000
    outer loop
      vertex -7.281220e+002  7.210000e+002  4.465511e+001
      vertex -7.301220e+002  7.210000e+002  4.470531e+001
      vertex -8.051220e+002  7.210000e+002  4.512700e+001
    endloop
  endfacet
  facet normal  0.000000e+000 -1.000000e+000  0.000000e+000
    outer loop
      vertex -7.281220e+002  7.210000e+002  4.465511e+001
      vertex -8.051220e+002  7.210000e+002  4.512700e+001
      vertex -8.051220e+002  7.210000e+002  4.430094e+001
    endloop
  endfacet
  facet normal  0.000000e+000 -1.000000e+000  0.000000e+000
    outer loop
      vertex -7.281220e+002  7.210000e+002  4.465511e+001
      vertex -8.051220e+002  7.210000e+002  4.430094e+001
      vertex -7.589082e+002  7.210000e+002  4.379233e+001
    endloop
  endfacet
  facet normal  0.000000e+000 -9.999999e-001  0.000000e+000
    outer loop
      vertex -7.281220e+002  7.210000e+002  4.465511e+001
      vertex -7.589082e+002  7.210000e+002  4.379233e+001
      vertex -7.281220e+002  7.210000e+002  4.315451e+001
    endloop
  endfacet
  facet normal  0.000000e+000 -1.000000e+000  -0.000000e+000
    outer loop
      vertex -7.301220e+002  7.210000e+002  4.470531e+001
      vertex -7.301220e+002  7.210000e+002  6.088378e+001
      vertex -7.401309e+002  7.210000e+002  6.050674e+001
    endloop
  endfacet
  facet normal  0.000000e+000 -1.000000e+000  -0.000000e+000
    outer loop
      vertex -7.301220e+002  7.210000e+002  4.470531e+001
      vertex -7.401309e+002  7.210000e+002  6.050674e+001
      vertex -7.550895e+002  7.210000e+002  5.743956e+001
    endloop
  endfacet
  facet normal  0.000000e+000 -9.999999e-001  -0.000000e+000
    outer loop
      vertex -7.301220e+002  7.210000e+002  4.470531e+001
      vertex -7.550895e+002  7.210000e+002  5.743956e+001
      vertex -7.653398e+002  7.210000e+002  5.517619e+001
    endloop
  endfacet
  facet normal  0.000000e+000 -1.000000e+000  -0.000000e+000
    outer loop
      vertex -7.301220e+002  7.210000e+002  4.470531e+001
      vertex -7.653398e+002  7.210000e+002  5.517619e+001
      vertex -7.852910e+002  7.210000e+002  5.038846e+001
    endloop
  endfacet
  facet normal  0.000000e+000 -1.000000e+000  -0.000000e+000
    outer loop
      vertex -7.301220e+002  7.210000e+002  4.470531e+001
      vertex -7.852910e+002  7.210000e+002  5.038846e+001
      vertex -8.051220e+002  7.210000e+002  4.512700e+001
    endloop
  endfacet
  facet normal  -0.000000e+000 -9.999999e-001  0.000000e+000
    outer loop
      vertex -7.401309e+002  7.210000e+002  6.050674e+001
      vertex -7.248580e+002  7.210000e+002  6.184016e+001
      vertex -7.251220e+002  7.210000e+002  6.331684e+001
    endloop
  endfacet
  facet normal -6.487083e-005 -1.000000e+000 -1.159658e-005
    outer loop
      vertex -7.251220e+002  7.210000e+002  6.331684e+001
      vertex -7.248580e+002  7.210000e+002  6.184016e+001
      vertex -7.221220e+002  7.209998e+002  6.232456e+001
    endloop
  endfacet
  facet normal -2.126719e-005 -1.000000e+000  1.202326e-004
    outer loop
      vertex -7.251220e+002  7.210000e+002  6.331684e+001
      vertex -7.221220e+002  7.209998e+002  6.232456e+001
      vertex -7.221220e+002  7.210000e+002  6.384749e+001
    endloop
  endfacet
  facet normal -1.741706e-001 -1.031427e-002  9.846615e-001
    outer loop
      vertex -7.221220e+002  7.210000e+002  6.384749e+001
      vertex -7.221220e+002  1.219000e+003  6.906401e+001
      vertex -7.251220e+002  7.210000e+002  6.331684e+001
    endloop
  endfacet
  facet normal -1.536325e-001 -1.047736e-002  9.880725e-001
    outer loop
      vertex -7.251220e+002  7.210000e+002  6.331684e+001
      vertex -7.221220e+002  1.219000e+003  6.906401e+001
      vertex -7.251220e+002  1.219000e+003  6.859755e+001
    endloop
  endfacet
  facet normal  1.787473e-001  1.063370e-002 -9.838375e-001
    outer loop
      vertex -7.248580e+002  7.210000e+002  6.184016e+001
      vertex -7.301220e+002  7.210000e+002  6.088378e+001
      vertex -7.301220e+002  9.625000e+002  6.349401e+001
    endloop
  endfacet
  facet normal  1.716299e-001  1.048724e-002 -9.851056e-001
    outer loop
      vertex -7.248580e+002  7.210000e+002  6.184016e+001
      vertex -7.301220e+002  9.625000e+002  6.349401e+001
      vertex -7.281220e+002  9.625000e+002  6.384246e+001
    endloop
  endfacet
  facet normal  1.781305e-001  1.056552e-002 -9.839501e-001
    outer loop
      vertex -7.248580e+002  7.210000e+002  6.184016e+001
      vertex -7.281220e+002  9.625000e+002  6.384246e+001
      vertex -7.281220e+002  9.775000e+002  6.400352e+001
    endloop
  endfacet
  facet normal  1.680804e-001  1.045254e-002 -9.857178e-001
    outer loop
      vertex -7.248580e+002  7.210000e+002  6.184016e+001
      vertex -7.281220e+002  9.775000e+002  6.400352e+001
      vertex -7.248884e+002  1.219000e+003  6.711578e+001
    endloop
  endfacet
  facet normal  1.710569e-001  1.067148e-002 -9.852033e-001
    outer loop
      vertex -7.301220e+002  9.775000e+002  6.365627e+001
      vertex -7.301220e+002  1.219000e+003  6.627214e+001
      vertex -7.281220e+002  9.775000e+002  6.400352e+001
    endloop
  endfacet
  facet normal  1.591315e-001  1.059148e-002 -9.872006e-001
    outer loop
      vertex -7.281220e+002  9.775000e+002  6.400352e+001
      vertex -7.301220e+002  1.219000e+003  6.627214e+001
      vertex -7.248884e+002  1.219000e+003  6.711578e+001
    endloop
  endfacet
  facet normal  0.000000e+000 -1.000000e+000  0.000000e+000
    outer loop
      vertex -7.301220e+002  9.625000e+002  4.770603e+001
      vertex -7.281220e+002  9.625000e+002  4.765055e+001
      vertex -7.301220e+002  9.625000e+002  6.349401e+001
    endloop
  endfacet
  facet normal  0.000000e+000 -1.000000e+000  0.000000e+000
    outer loop
      vertex -7.301220e+002  9.625000e+002  6.349401e+001
      vertex -7.281220e+002  9.625000e+002  4.765055e+001
      vertex -7.281220e+002  9.625000e+002  6.384246e+001
    endloop
  endfacet
  facet normal  9.999999e-001  0.000000e+000  0.000000e+000
    outer loop
      vertex -7.221220e+002  1.219000e+003  6.754638e+001
      vertex -7.221220e+002  1.219000e+003  6.906401e+001
      vertex -7.221220e+002  7.209998e+002  6.232456e+001
    endloop
  endfacet
  facet normal  1.000000e+000  0.000000e+000  0.000000e+000
    outer loop
      vertex -7.221220e+002  7.209998e+002  6.232456e+001
      vertex -7.221220e+002  1.219000e+003  6.906401e+001
      vertex -7.221220e+002  7.210000e+002  6.384749e+001
    endloop
  endfacet
  facet normal  1.000000e+000  0.000000e+000  0.000000e+000
    outer loop
      vertex -7.301220e+002  1.219000e+003  5.089390e+001
      vertex -7.301220e+002  1.219000e+003  6.627214e+001
      vertex -7.301220e+002  9.775000e+002  4.789243e+001
    endloop
  endfacet
  facet normal  1.000000e+000  0.000000e+000  0.000000e+000
    outer loop
      vertex -7.301220e+002  9.775000e+002  4.789243e+001
      vertex -7.301220e+002  1.219000e+003  6.627214e+001
      vertex -7.301220e+002  9.775000e+002  6.365627e+001
    endloop
  endfacet
  facet normal  1.000000e+000  0.000000e+000  0.000000e+000
    outer loop
      vertex -7.301220e+002  9.625000e+002  4.770603e+001
      vertex -7.301220e+002  9.625000e+002  6.349401e+001
      vertex -7.301220e+002  7.210000e+002  4.470531e+001
    endloop
  endfacet
  facet normal  1.000000e+000  0.000000e+000  0.000000e+000
    outer loop
      vertex -7.301220e+002  7.210000e+002  4.470531e+001
      vertex -7.301220e+002  9.625000e+002  6.349401e+001
      vertex -7.301220e+002  7.210000e+002  6.088378e+001
    endloop
  endfacet
  facet normal  1.743259e-001  1.044143e-002 -9.846327e-001
    outer loop
      vertex -7.248580e+002  7.210000e+002  6.184016e+001
      vertex -7.248884e+002  1.219000e+003  6.711578e+001
      vertex -7.221220e+002  7.209998e+002  6.232456e+001
    endloop
  endfacet
  facet normal  1.537967e-001  1.036025e-002 -9.880482e-001
    outer loop
      vertex -7.221220e+002  7.209998e+002  6.232456e+001
      vertex -7.248884e+002  1.219000e+003  6.711578e+001
      vertex -7.221220e+002  1.219000e+003  6.754638e+001
    endloop
  endfacet
  facet normal  2.508706e-002 -1.242048e-002  9.996081e-001
    outer loop
      vertex -7.301220e+002  7.210000e+002  4.470531e+001
      vertex -7.281220e+002  7.210000e+002  4.465511e+001
      vertex -7.301220e+002  9.625000e+002  4.770603e+001
    endloop
  endfacet
  facet normal  2.772577e-002 -1.239775e-002  9.995386e-001
    outer loop
      vertex -7.301220e+002  9.625000e+002  4.770603e+001
      vertex -7.281220e+002  7.210000e+002  4.465511e+001
      vertex -7.281220e+002  9.625000e+002  4.765055e+001
    endloop
  endfacet
  facet normal  -0.000000e+000  1.000000e+000  0.000000e+000
    outer loop
      vertex -7.281220e+002  9.775000e+002  4.783661e+001
      vertex -7.301220e+002  9.775000e+002  4.789243e+001
      vertex -7.281220e+002  9.775000e+002  6.400352e+001
    endloop
  endfacet
  facet normal  0.000000e+000  1.000000e+000  0.000000e+000
    outer loop
      vertex -7.281220e+002  9.775000e+002  6.400352e+001
      vertex -7.301220e+002  9.775000e+002  4.789243e+001
      vertex -7.301220e+002  9.775000e+002  6.365627e+001
    endloop
  endfacet
  facet normal  2.789531e-002 -1.242266e-002  9.995337e-001
    outer loop
      vertex -7.301220e+002  9.775000e+002  4.789243e+001
      vertex -7.281220e+002  9.775000e+002  4.783661e+001
      vertex -7.301220e+002  1.219000e+003  5.089390e+001
    endloop
  endfacet
  facet normal  3.066673e-002 -1.239869e-002  9.994528e-001
    outer loop
      vertex -7.301220e+002  1.219000e+003  5.089390e+001
      vertex -7.281220e+002  9.775000e+002  4.783661e+001
      vertex -7.281220e+002  1.219000e+003  5.083253e+001
    endloop
  endfacet
  facet normal -1.000000e+000  0.000000e+000  0.000000e+000
    outer loop
      vertex -8.051220e+002  7.210000e+002  4.512700e+001
      vertex -8.051220e+002  1.219000e+003  5.134159e+001
      vertex -8.051220e+002  7.210000e+002  4.430094e+001
    endloop
  endfacet
  facet normal -1.000000e+000  0.000000e+000  0.000000e+000
    outer loop
      vertex -8.051220e+002  7.210000e+002  4.430094e+001
      vertex -8.051220e+002  1.219000e+003  5.134159e+001
      vertex -8.051220e+002  1.219000e+003  5.068127e+001
    endloop
  endfacet
  facet normal  0.000000e+000  1.000000e+000  0.000000e+000
    outer loop
      vertex -7.301220e+002  1.219000e+003  6.627214e+001
      vertex -7.401476e+002  1.219000e+003  6.607906e+001
      vertex -7.248884e+002  1.219000e+003  6.711578e+001
    endloop
  endfacet
  facet normal  0.000000e+000  1.000000e+000  -0.000000e+000
    outer loop
      vertex -7.281220e+002  1.219000e+003  5.083253e+001
      vertex -7.281220e+002  1.219000e+003  4.933170e+001
      vertex -7.666177e+002  1.219000e+003  5.025022e+001
    endloop
  endfacet
  facet normal  0.000000e+000  1.000000e+000  -0.000000e+000
    outer loop
      vertex -7.281220e+002  1.219000e+003  5.083253e+001
      vertex -7.666177e+002  1.219000e+003  5.025022e+001
      vertex -8.051220e+002  1.219000e+003  5.068127e+001
    endloop
  endfacet
  facet normal  0.000000e+000  1.000000e+000  0.000000e+000
    outer loop
      vertex -7.281220e+002  1.219000e+003  5.083253e+001
      vertex -8.051220e+002  1.219000e+003  5.068127e+001
      vertex -8.051220e+002  1.219000e+003  5.134159e+001
    endloop
  endfacet
  facet normal  0.000000e+000  1.000000e+000  0.000000e+000
    outer loop
      vertex -7.281220e+002  1.219000e+003  5.083253e+001
      vertex -8.051220e+002  1.219000e+003  5.134159e+001
      vertex -7.301220e+002  1.219000e+003  5.089390e+001
    endloop
  endfacet
  facet normal  -0.000000e+000  1.000000e+000  0.000000e+000
    outer loop
      vertex -7.301220e+002  1.219000e+003  5.089390e+001
      vertex -8.051220e+002  1.219000e+003  5.134159e+001
      vertex -7.853218e+002  1.219000e+003  5.653542e+001
    endloop
  endfacet
  facet normal  -0.000000e+000  1.000000e+000  0.000000e+000
    outer loop
      vertex -7.301220e+002  1.219000e+003  5.089390e+001
      vertex -7.853218e+002  1.219000e+003  5.653542e+001
      vertex -7.653754e+002  1.219000e+003  6.114027e+001
    endloop
  endfacet
  facet normal  -0.000000e+000  1.000000e+000  0.000000e+000
    outer loop
      vertex -7.301220e+002  1.219000e+003  5.089390e+001
      vertex -7.653754e+002  1.219000e+003  6.114027e+001
      vertex -7.551199e+002  1.219000e+003  6.326340e+001
    endloop
  endfacet
  facet normal  -0.000000e+000  1.000000e+000  0.000000e+000
    outer loop
      vertex -7.301220e+002  1.219000e+003  5.089390e+001
      vertex -7.551199e+002  1.219000e+003  6.326340e+001
      vertex -7.401476e+002  1.219000e+003  6.607906e+001
    endloop
  endfacet
  facet normal  -0.000000e+000  1.000000e+000  0.000000e+000
    outer loop
      vertex -7.301220e+002  1.219000e+003  5.089390e+001
      vertex -7.401476e+002  1.219000e+003  6.607906e+001
      vertex -7.301220e+002  1.219000e+003  6.627214e+001
    endloop
  endfacet
  facet normal  0.000000e+000  1.000000e+000  0.000000e+000
    outer loop
      vertex -7.248884e+002  1.219000e+003  6.711578e+001
      vertex -7.401476e+002  1.219000e+003  6.607906e+001
      vertex -7.221220e+002  1.219000e+003  6.754638e+001
    endloop
  endfacet
  facet normal  0.000000e+000  9.999999e-001  0.000000e+000
    outer loop
      vertex -7.221220e+002  1.219000e+003  6.754638e+001
      vertex -7.401476e+002  1.219000e+003  6.607906e+001
      vertex -7.251220e+002  1.219000e+003  6.859755e+001
    endloop
  endfacet
  facet normal  -0.000000e+000  1.000000e+000  0.000000e+000
    outer loop
      vertex -7.221220e+002  1.219000e+003  6.754638e+001
      vertex -7.251220e+002  1.219000e+003  6.859755e+001
      vertex -7.221220e+002  1.219000e+003  6.906401e+001
    endloop
  endfacet
  facet normal  1.000000e+000  0.000000e+000  0.000000e+000
    outer loop
      vertex -7.281220e+002  7.210000e+002  4.315451e+001
      vertex -7.281220e+002  9.625000e+002  4.765055e+001
      vertex -7.281220e+002  7.210000e+002  4.465511e+001
    endloop
  endfacet
  facet normal  9.999999e-001  0.000000e+000  0.000000e+000
    outer loop
      vertex -7.281220e+002  9.775000e+002  4.783661e+001
      vertex -7.281220e+002  9.775000e+002  6.400352e+001
      vertex -7.281220e+002  9.625000e+002  6.384246e+001
    endloop
  endfacet
  facet normal  1.000000e+000  0.000000e+000  0.000000e+000
    outer loop
      vertex -7.281220e+002  9.775000e+002  4.783661e+001
      vertex -7.281220e+002  9.625000e+002  6.384246e+001
      vertex -7.281220e+002  9.625000e+002  4.765055e+001
    endloop
  endfacet
  facet normal  1.000000e+000  -0.000000e+000  0.000000e+000
    outer loop
      vertex -7.281220e+002  9.775000e+002  4.783661e+001
      vertex -7.281220e+002  9.625000e+002  4.765055e+001
      vertex -7.281220e+002  7.210000e+002  4.315451e+001
    endloop
  endfacet
  facet normal  1.000000e+000  0.000000e+000  0.000000e+000
    outer loop
      vertex -7.281220e+002  9.775000e+002  4.783661e+001
      vertex -7.281220e+002  7.210000e+002  4.315451e+001
      vertex -7.281220e+002  1.219000e+003  4.933170e+001
    endloop
  endfacet
  facet normal  1.000000e+000  0.000000e+000  -0.000000e+000
    outer loop
      vertex -7.281220e+002  9.775000e+002  4.783661e+001
      vertex -7.281220e+002  1.219000e+003  4.933170e+001
      vertex -7.281220e+002  1.219000e+003  5.083253e+001
    endloop
  endfacet
  facet normal -1.766725e-001 -1.108390e-002  9.842073e-001
    outer loop
      vertex -7.340966e+002  9.689213e+002  6.438197e+001
      vertex -7.401309e+002  7.210000e+002  6.050674e+001
      vertex -7.333620e+002  9.681226e+002  6.450484e+001
    endloop
  endfacet
  facet normal -1.777069e-001 -1.105581e-002  9.840214e-001
    outer loop
      vertex -7.340966e+002  9.689213e+002  6.438197e+001
      vertex -7.343718e+002  9.699666e+002  6.434402e+001
      vertex -7.401309e+002  7.210000e+002  6.050674e+001
    endloop
  endfacet
  facet normal -2.156025e-001 -1.143178e-002  9.764143e-001
    outer loop
      vertex -7.551199e+002  1.219000e+003  6.326340e+001
      vertex -7.653398e+002  7.210000e+002  5.517619e+001
      vertex -7.550895e+002  7.210000e+002  5.743956e+001
    endloop
  endfacet
  facet normal -1.652977e-001 -1.070462e-002  9.861856e-001
    outer loop
      vertex -7.251220e+002  1.219000e+003  6.859755e+001
      vertex -7.401476e+002  1.219000e+003  6.607906e+001
      vertex -7.343718e+002  9.699666e+002  6.434402e+001
    endloop
  endfacet
  facet normal -1.796721e-001 -1.012783e-002  9.836744e-001
    outer loop
      vertex -7.251220e+002  1.219000e+003  6.859755e+001
      vertex -7.343718e+002  9.699666e+002  6.434402e+001
      vertex -7.341282e+002  9.710186e+002  6.439933e+001
    endloop
  endfacet
  facet normal -1.765509e-001 -1.025073e-002  9.842381e-001
    outer loop
      vertex -7.251220e+002  1.219000e+003  6.859755e+001
      vertex -7.341282e+002  9.710186e+002  6.439933e+001
      vertex -7.330985e+002  9.720270e+002  6.459454e+001
    endloop
  endfacet
  facet normal -1.751893e-001 -1.029864e-002  9.844809e-001
    outer loop
      vertex -7.251220e+002  1.219000e+003  6.859755e+001
      vertex -7.330985e+002  9.720270e+002  6.459454e+001
      vertex -7.324062e+002  9.722320e+002  6.471989e+001
    endloop
  endfacet
  facet normal -1.740285e-001 -1.033613e-002  9.846864e-001
    outer loop
      vertex -7.251220e+002  1.219000e+003  6.859755e+001
      vertex -7.324062e+002  9.722320e+002  6.471989e+001
      vertex -7.313227e+002  9.721032e+002  6.491003e+001
    endloop
  endfacet
  facet normal -1.726283e-001 -1.037497e-002  9.849324e-001
    outer loop
      vertex -7.251220e+002  1.219000e+003  6.859755e+001
      vertex -7.313227e+002  9.721032e+002  6.491003e+001
      vertex -7.301475e+002  9.710787e+002  6.510522e+001
    endloop
  endfacet
  facet normal -1.709112e-001 -1.041399e-002  9.852313e-001
    outer loop
      vertex -7.251220e+002  1.219000e+003  6.859755e+001
      vertex -7.301475e+002  9.710787e+002  6.510522e+001
      vertex -7.298738e+002  9.699103e+002  6.514034e+001
    endloop
  endfacet
  facet normal -1.692186e-001 -1.045033e-002  9.855232e-001
    outer loop
      vertex -7.251220e+002  1.219000e+003  6.859755e+001
      vertex -7.298738e+002  9.699103e+002  6.514034e+001
      vertex -7.251220e+002  7.210000e+002  6.331684e+001
    endloop
  endfacet
  facet normal -1.724882e-001 -1.050859e-002  9.849556e-001
    outer loop
      vertex -7.251220e+002  7.210000e+002  6.331684e+001
      vertex -7.298738e+002  9.699103e+002  6.514034e+001
      vertex -7.303842e+002  9.685709e+002  6.503667e+001
    endloop
  endfacet
  facet normal -1.731457e-001 -1.052176e-002  9.848400e-001
    outer loop
      vertex -7.251220e+002  7.210000e+002  6.331684e+001
      vertex -7.303842e+002  9.685709e+002  6.503667e+001
      vertex -7.312561e+002  9.679233e+002  6.487646e+001
    endloop
  endfacet
  facet normal -1.740036e-001 -1.054212e-002  9.846886e-001
    outer loop
      vertex -7.251220e+002  7.210000e+002  6.331684e+001
      vertex -7.312561e+002  9.679233e+002  6.487646e+001
      vertex -7.319691e+002  9.677552e+002  6.474867e+001
    endloop
  endfacet
  facet normal -1.751235e-001 -1.057204e-002  9.844897e-001
    outer loop
      vertex -7.251220e+002  7.210000e+002  6.331684e+001
      vertex -7.319691e+002  9.677552e+002  6.474867e+001
      vertex -7.333620e+002  9.681226e+002  6.450484e+001
    endloop
  endfacet
  facet normal -1.840204e-001 -1.086087e-002  9.828624e-001
    outer loop
      vertex -7.251220e+002  7.210000e+002  6.331684e+001
      vertex -7.333620e+002  9.681226e+002  6.450484e+001
      vertex -7.401309e+002  7.210000e+002  6.050674e+001
    endloop
  endfacet
  facet normal -2.537089e-001 -1.206986e-002  9.672053e-001
    outer loop
      vertex -8.051220e+002  1.219000e+003  5.134159e+001
      vertex -8.051220e+002  7.210000e+002  4.512700e+001
      vertex -7.853218e+002  1.219000e+003  5.653542e+001
    endloop
  endfacet
  facet normal -2.564247e-001 -1.194550e-002  9.664904e-001
    outer loop
      vertex -7.853218e+002  1.219000e+003  5.653542e+001
      vertex -8.051220e+002  7.210000e+002  4.512700e+001
      vertex -7.852910e+002  7.210000e+002  5.038846e+001
    endloop
  endfacet
  facet normal -2.249289e-001 -1.203996e-002  9.743008e-001
    outer loop
      vertex -7.853218e+002  1.219000e+003  5.653542e+001
      vertex -7.852910e+002  7.210000e+002  5.038846e+001
      vertex -7.653754e+002  1.219000e+003  6.114027e+001
    endloop
  endfacet
  facet normal -2.333309e-001 -1.166135e-002  9.723275e-001
    outer loop
      vertex -7.653754e+002  1.219000e+003  6.114027e+001
      vertex -7.852910e+002  7.210000e+002  5.038846e+001
      vertex -7.653398e+002  7.210000e+002  5.517619e+001
    endloop
  endfacet
  facet normal -2.027099e-001 -1.174109e-002  9.791685e-001
    outer loop
      vertex -7.653754e+002  1.219000e+003  6.114027e+001
      vertex -7.653398e+002  7.210000e+002  5.517619e+001
      vertex -7.551199e+002  1.219000e+003  6.326340e+001
    endloop
  endfacet
  facet normal -1.848068e-001 -1.150350e-002  9.827076e-001
    outer loop
      vertex -7.551199e+002  1.219000e+003  6.326340e+001
      vertex -7.550895e+002  7.210000e+002  5.743956e+001
      vertex -7.401476e+002  1.219000e+003  6.607906e+001
    endloop
  endfacet
  facet normal -2.008533e-001 -1.096744e-002  9.795600e-001
    outer loop
      vertex -7.401476e+002  1.219000e+003  6.607906e+001
      vertex -7.550895e+002  7.210000e+002  5.743956e+001
      vertex -7.401309e+002  7.210000e+002  6.050674e+001
    endloop
  endfacet
  facet normal -1.793464e-001 -1.101331e-002  9.837244e-001
    outer loop
      vertex -7.401476e+002  1.219000e+003  6.607906e+001
      vertex -7.401309e+002  7.210000e+002  6.050674e+001
      vertex -7.343718e+002  9.699666e+002  6.434402e+001
    endloop
  endfacet
  facet normal  5.998392e-001 -8.000684e-001 -9.142315e-003
    outer loop
      vertex -7.329953e+002  9.720736e+002  4.640207e+001
      vertex -7.341282e+002  9.710186e+002  6.439933e+001
      vertex -7.338681e+002  9.714191e+002  4.641698e+001
    endloop
  endfacet
  facet normal  9.740919e-001 -2.259710e-001  9.058219e-003
    outer loop
      vertex -7.338681e+002  9.714191e+002  4.641698e+001
      vertex -7.341282e+002  9.710186e+002  6.439933e+001
      vertex -7.343718e+002  9.699666e+002  6.434402e+001
    endloop
  endfacet
  facet normal  9.057919e-001 -4.236298e-001 -8.875725e-003
    outer loop
      vertex -7.338681e+002  9.714191e+002  4.641698e+001
      vertex -7.343718e+002  9.699666e+002  6.434402e+001
      vertex -7.343302e+002  9.704310e+002  4.641677e+001
    endloop
  endfacet
  facet normal  9.669276e-001  2.548977e-001  8.846004e-003
    outer loop
      vertex -7.343302e+002  9.704310e+002  4.641677e+001
      vertex -7.343718e+002  9.699666e+002  6.434402e+001
      vertex -7.340966e+002  9.689213e+002  6.438197e+001
    endloop
  endfacet
  facet normal  9.882365e-001  1.529337e-001  0.000000e+000
    outer loop
      vertex -7.343302e+002  9.704310e+002  4.641677e+001
      vertex -7.340966e+002  9.689213e+002  6.438197e+001
      vertex -7.340966e+002  9.689213e+002  4.639183e+001
    endloop
  endfacet
  facet normal  6.994914e-001 -7.146379e-001  2.139030e-003
    outer loop
      vertex -7.341282e+002  9.710186e+002  6.439933e+001
      vertex -7.329953e+002  9.720736e+002  4.640207e+001
      vertex -7.330985e+002  9.720270e+002  6.459454e+001
    endloop
  endfacet
  facet normal  1.530594e-001 -9.882156e-001 -1.661329e-003
    outer loop
      vertex -7.330985e+002  9.720270e+002  6.459454e+001
      vertex -7.329953e+002  9.720736e+002  4.640207e+001
      vertex -7.319174e+002  9.722406e+002  4.637529e+001
    endloop
  endfacet
  facet normal  2.826777e-001 -9.591888e-001  7.081623e-003
    outer loop
      vertex -7.330985e+002  9.720270e+002  6.459454e+001
      vertex -7.319174e+002  9.722406e+002  4.637529e+001
      vertex -7.324062e+002  9.722320e+002  6.471989e+001
    endloop
  endfacet
  facet normal -3.301445e-001 -9.438852e-001 -9.239104e-003
    outer loop
      vertex -7.324062e+002  9.722320e+002  6.471989e+001
      vertex -7.319174e+002  9.722406e+002  4.637529e+001
      vertex -7.308870e+002  9.718805e+002  4.634288e+001
    endloop
  endfacet
  facet normal -1.195990e-001 -9.927806e-001  9.101912e-003
    outer loop
      vertex -7.324062e+002  9.722320e+002  6.471989e+001
      vertex -7.308870e+002  9.718805e+002  4.634288e+001
      vertex -7.313227e+002  9.721032e+002  6.491003e+001
    endloop
  endfacet
  facet normal -7.352102e-001 -6.777777e-001 -9.123660e-003
    outer loop
      vertex -7.313227e+002  9.721032e+002  6.491003e+001
      vertex -7.308870e+002  9.718805e+002  4.634288e+001
      vertex -7.301475e+002  9.710787e+002  4.631265e+001
    endloop
  endfacet
  facet normal -6.571038e-001 -7.538001e-001  0.000000e+000
    outer loop
      vertex -7.313227e+002  9.721032e+002  6.491003e+001
      vertex -7.301475e+002  9.710787e+002  4.631265e+001
      vertex -7.301475e+002  9.710787e+002  6.510522e+001
    endloop
  endfacet
  facet normal -1.119332e-002  1.270311e-002 -9.998567e-001
    outer loop
      vertex -7.666177e+002  1.219000e+003  5.025022e+001
      vertex -7.676224e+002  9.699970e+002  4.709790e+001
      vertex -8.051220e+002  1.219000e+003  5.068127e+001
    endloop
  endfacet
  facet normal -2.071157e-002  1.255491e-002 -9.997067e-001
    outer loop
      vertex -7.281220e+002  7.210000e+002  4.315451e+001
      vertex -7.589082e+002  7.210000e+002  4.379233e+001
      vertex -7.340966e+002  9.689213e+002  4.639183e+001
    endloop
  endfacet
  facet normal -2.639714e-002  1.241617e-002 -9.995744e-001
    outer loop
      vertex -7.281220e+002  7.210000e+002  4.315451e+001
      vertex -7.340966e+002  9.689213e+002  4.639183e+001
      vertex -7.329296e+002  9.679000e+002  4.634833e+001
    endloop
  endfacet
  facet normal -2.667213e-002  1.241072e-002 -9.995672e-001
    outer loop
      vertex -7.281220e+002  7.210000e+002  4.315451e+001
      vertex -7.329296e+002  9.679000e+002  4.634833e+001
      vertex -7.322376e+002  9.677530e+002  4.632804e+001
    endloop
  endfacet
  facet normal -2.700222e-002  1.240510e-002 -9.995584e-001
    outer loop
      vertex -7.281220e+002  7.210000e+002  4.315451e+001
      vertex -7.322376e+002  9.677530e+002  4.632804e+001
      vertex -7.308320e+002  9.681565e+002  4.629507e+001
    endloop
  endfacet
  facet normal -2.734082e-002  1.240127e-002 -9.995492e-001
    outer loop
      vertex -7.281220e+002  7.210000e+002  4.315451e+001
      vertex -7.308320e+002  9.681565e+002  4.629507e+001
      vertex -7.301208e+002  9.689714e+002  4.628573e+001
    endloop
  endfacet
  facet normal -2.743613e-002  1.240047e-002 -9.995466e-001
    outer loop
      vertex -7.281220e+002  7.210000e+002  4.315451e+001
      vertex -7.301208e+002  9.689714e+002  4.628573e+001
      vertex -7.298721e+002  9.700257e+002  4.629198e+001
    endloop
  endfacet
  facet normal -2.773543e-002  1.239826e-002 -9.995385e-001
    outer loop
      vertex -7.281220e+002  7.210000e+002  4.315451e+001
      vertex -7.298721e+002  9.700257e+002  4.629198e+001
      vertex -7.281220e+002  1.219000e+003  4.933170e+001
    endloop
  endfacet
  facet normal -2.760266e-002  1.239737e-002 -9.995421e-001
    outer loop
      vertex -7.281220e+002  1.219000e+003  4.933170e+001
      vertex -7.298721e+002  9.700257e+002  4.629198e+001
      vertex -7.301475e+002  9.710787e+002  4.631265e+001
    endloop
  endfacet
  facet normal -2.742281e-002  1.239596e-002 -9.995471e-001
    outer loop
      vertex -7.281220e+002  1.219000e+003  4.933170e+001
      vertex -7.301475e+002  9.710787e+002  4.631265e+001
      vertex -7.308870e+002  9.718805e+002  4.634288e+001
    endloop
  endfacet
  facet normal -2.711072e-002  1.239257e-002 -9.995556e-001
    outer loop
      vertex -7.281220e+002  1.219000e+003  4.933170e+001
      vertex -7.308870e+002  9.718805e+002  4.634288e+001
      vertex -7.319174e+002  9.722406e+002  4.637529e+001
    endloop
  endfacet
  facet normal -2.674549e-002  1.238707e-002 -9.995654e-001
    outer loop
      vertex -7.281220e+002  1.219000e+003  4.933170e+001
      vertex -7.319174e+002  9.722406e+002  4.637529e+001
      vertex -7.329953e+002  9.720736e+002  4.640207e+001
    endloop
  endfacet
  facet normal -2.636582e-002  1.237970e-002 -9.995757e-001
    outer loop
      vertex -7.281220e+002  1.219000e+003  4.933170e+001
      vertex -7.329953e+002  9.720736e+002  4.640207e+001
      vertex -7.338681e+002  9.714191e+002  4.641698e+001
    endloop
  endfacet
  facet normal -2.598924e-002  1.237108e-002 -9.995857e-001
    outer loop
      vertex -7.281220e+002  1.219000e+003  4.933170e+001
      vertex -7.338681e+002  9.714191e+002  4.641698e+001
      vertex -7.343302e+002  9.704310e+002  4.641677e+001
    endloop
  endfacet
  facet normal -2.061300e-002  1.223829e-002 -9.997126e-001
    outer loop
      vertex -7.281220e+002  1.219000e+003  4.933170e+001
      vertex -7.343302e+002  9.704310e+002  4.641677e+001
      vertex -7.676224e+002  9.699970e+002  4.709790e+001
    endloop
  endfacet
  facet normal -2.385177e-002  1.275137e-002 -9.996341e-001
    outer loop
      vertex -7.281220e+002  1.219000e+003  4.933170e+001
      vertex -7.676224e+002  9.699970e+002  4.709790e+001
      vertex -7.666177e+002  1.219000e+003  5.025022e+001
    endloop
  endfacet
  facet normal -2.366075e-002  1.284933e-002 -9.996375e-001
    outer loop
      vertex -7.340966e+002  9.689213e+002  4.639183e+001
      vertex -7.589082e+002  7.210000e+002  4.379233e+001
      vertex -7.343302e+002  9.704310e+002  4.641677e+001
    endloop
  endfacet
  facet normal -2.061699e-002  1.255016e-002 -9.997087e-001
    outer loop
      vertex -7.343302e+002  9.704310e+002  4.641677e+001
      vertex -7.589082e+002  7.210000e+002  4.379233e+001
      vertex -7.676224e+002  9.699970e+002  4.709790e+001
    endloop
  endfacet
  facet normal -1.100408e-002  1.288855e-002 -9.998564e-001
    outer loop
      vertex -7.589082e+002  7.210000e+002  4.379233e+001
      vertex -8.051220e+002  7.210000e+002  4.430094e+001
      vertex -7.676224e+002  9.699970e+002  4.709790e+001
    endloop
  endfacet
  facet normal -1.048309e-002  1.281016e-002 -9.998630e-001
    outer loop
      vertex -7.676224e+002  9.699970e+002  4.709790e+001
      vertex -8.051220e+002  7.210000e+002  4.430094e+001
      vertex -8.051220e+002  1.219000e+003  5.068127e+001
    endloop
  endfacet
  facet normal -7.534187e-001  6.575319e-001  3.464916e-003
    outer loop
      vertex -7.308320e+002  9.681565e+002  4.629507e+001
      vertex -7.303842e+002  9.685709e+002  6.503667e+001
      vertex -7.301208e+002  9.689714e+002  4.628573e+001
    endloop
  endfacet
  facet normal -9.342980e-001  3.564506e-001 -5.506015e-003
    outer loop
      vertex -7.301208e+002  9.689714e+002  4.628573e+001
      vertex -7.303842e+002  9.685709e+002  6.503667e+001
      vertex -7.298738e+002  9.699103e+002  6.514034e+001
    endloop
  endfacet
  facet normal -9.732827e-001  2.296064e-001  1.320894e-003
    outer loop
      vertex -7.301208e+002  9.689714e+002  4.628573e+001
      vertex -7.298738e+002  9.699103e+002  6.514034e+001
      vertex -7.298721e+002  9.700257e+002  4.629198e+001
    endloop
  endfacet
  facet normal -9.736379e-001 -2.280947e-001 -1.481860e-003
    outer loop
      vertex -7.298721e+002  9.700257e+002  4.629198e+001
      vertex -7.298738e+002  9.699103e+002  6.514034e+001
      vertex -7.301475e+002  9.710787e+002  6.510522e+001
    endloop
  endfacet
  facet normal -9.674773e-001 -2.529583e-001  -0.000000e+000
    outer loop
      vertex -7.298721e+002  9.700257e+002  4.629198e+001
      vertex -7.301475e+002  9.710787e+002  6.510522e+001
      vertex -7.301475e+002  9.710787e+002  4.631265e+001
    endloop
  endfacet
  facet normal -5.958507e-001  8.030874e-001 -3.519192e-003
    outer loop
      vertex -7.303842e+002  9.685709e+002  6.503667e+001
      vertex -7.308320e+002  9.681565e+002  4.629507e+001
      vertex -7.312561e+002  9.679233e+002  6.487646e+001
    endloop
  endfacet
  facet normal -2.757986e-001  9.611982e-001  5.769626e-003
    outer loop
      vertex -7.312561e+002  9.679233e+002  6.487646e+001
      vertex -7.308320e+002  9.681565e+002  4.629507e+001
      vertex -7.322376e+002  9.677530e+002  4.632804e+001
    endloop
  endfacet
  facet normal -2.300243e-001  9.731795e-001  3.237444e-003
    outer loop
      vertex -7.312561e+002  9.679233e+002  6.487646e+001
      vertex -7.322376e+002  9.677530e+002  4.632804e+001
      vertex -7.319691e+002  9.677552e+002  6.474867e+001
    endloop
  endfacet
  facet normal  2.076602e-001  9.781960e-001 -3.144162e-003
    outer loop
      vertex -7.319691e+002  9.677552e+002  6.474867e+001
      vertex -7.322376e+002  9.677530e+002  4.632804e+001
      vertex -7.329296e+002  9.679000e+002  4.634833e+001
    endloop
  endfacet
  facet normal  2.559544e-001  9.666717e-001 -5.755991e-003
    outer loop
      vertex -7.319691e+002  9.677552e+002  6.474867e+001
      vertex -7.329296e+002  9.679000e+002  4.634833e+001
      vertex -7.333620e+002  9.681226e+002  6.450484e+001
    endloop
  endfacet
  facet normal  6.587137e-001  7.523660e-001  6.462529e-003
    outer loop
      vertex -7.333620e+002  9.681226e+002  6.450484e+001
      vertex -7.329296e+002  9.679000e+002  4.634833e+001
      vertex -7.340966e+002  9.689213e+002  4.639183e+001
    endloop
  endfacet
  facet normal  7.360465e-001  6.769310e-001  -0.000000e+000
    outer loop
      vertex -7.333620e+002  9.681226e+002  6.450484e+001
      vertex -7.340966e+002  9.689213e+002  4.639183e+001
      vertex -7.340966e+002  9.689213e+002  6.438197e+001
    endloop
  endfacet
endsolid CATIA STL
